<svg width="36" height="36" viewBox="0 0 36 36" fill="none" xmlns="http://www.w3.org/2000/svg">
<g clip-path="url(#clip0_4_826)">
<path d="M27.4496 8.56532C26.8646 7.98032 25.9196 7.98032 25.3346 8.56532L17.9996 15.8853L10.6646 8.55032C10.0796 7.96532 9.13459 7.96532 8.54959 8.55032C7.96459 9.13532 7.96459 10.0803 8.54959 10.6653L15.8846 18.0003L8.54959 25.3353C7.96459 25.9203 7.96459 26.8653 8.54959 27.4503C9.13459 28.0353 10.0796 28.0353 10.6646 27.4503L17.9996 20.1153L25.3346 27.4503C25.9196 28.0353 26.8646 28.0353 27.4496 27.4503C28.0346 26.8653 28.0346 25.9203 27.4496 25.3353L20.1146 18.0003L27.4496 10.6653C28.0196 10.0953 28.0196 9.13532 27.4496 8.56532Z" fill="black"/>
</g>
<defs>
<clipPath id="clip0_4_826">
<rect width="36" height="36" fill="white"/>
</clipPath>
</defs>
</svg>
